<svg xmlns="http://www.w3.org/2000/svg" width="16" height="16" viewBox="0 0 16 16">
    <path fill="url(#a)" d="M14.9 5.4c.4-1.9-.9-3.4-2.9-3.4h-8.8l-.6 3.4h8.8l-.2.7h-8.8l-1.4 7.9h3.5l.7-4.1h5.3c2 0 3.8-1.5 4.2-3.4l.2-1.1z"/>
    <path fill="#ffffff" opacity=".2" d="M12 2.5c1.7 0 2.9 1 3 2.4 0-1.6-1.2-2.9-3-2.9h-8.8l-.1.5h8.9zm-9.6 3.7v.3h8.8l.1-.3h-8.9z"/>
    <path fill="url(#b)" d="M8.5 9l3 3-3 3v-6z M12 9l3 3-3 3v-6z"/>
    <linearGradient gradientUnits="userSpaceOnUse" id="a" x1="6" x2="9" y1="15" y2="1">
        <stop offset="0" stop-color="#32ffb4"/>
        <stop offset=".3" stop-color="#32ffb4"/>
        <stop offset=".5" stop-color="#69d5ff"/>
        <stop offset=".7" stop-color="#e498ff"/>
        <stop offset="1" stop-color="#e498ff"/>
    </linearGradient>
    <linearGradient gradientUnits="userSpaceOnUse" id="b" x1="10" x2="12" y1="14" y2="8">
        <stop offset=".15" stop-color="#282e3f"/>
        <stop offset=".85" stop-color="#42499e"/>
    </linearGradient>
</svg>
