<svg xmlns="http://www.w3.org/2000/svg" width="16" height="16" viewBox="0 0 16 16">
    <path fill="url(#a)" d="M14.9 5.4c.4-1.9-.9-3.4-2.9-3.4h-8.8l-.6 3.4h8.8l-.2.7h-8.8l-1.4 7.9h3.5l.7-4.1h5.3c2 0 3.8-1.5 4.2-3.4l.2-1.1z"/>
    <path fill="#ffffff" opacity=".2" d="M12 2.5c1.7 0 2.9 1 3 2.4 0-1.6-1.2-2.9-3-2.9h-8.8l-.1.5h8.9zm-9.6 3.7v.3h8.8l.1-.3h-8.9z"/>
    <path fill="#48bb78" d="M12 9l3 3-3 3v-6z"/>
    <path fill="#e53e3e" d="M11 15l-3-3 3-3v6z"/>
    <linearGradient gradientUnits="userSpaceOnUse" id="a" x1="6" x2="9" y1="15" y2="1">
        <stop offset=".15" stop-color="#282e3f"/>
        <stop offset=".85" stop-color="#42499e"/>
    </linearGradient>
</svg>
