<svg width="16" height="16" viewBox="0 0 16 16" fill="none" xmlns="http://www.w3.org/2000/svg">
<path d="M13.5 8.86592C14.1667 8.48102 14.1667 7.51877 13.5 7.13387L4.5 1.93771C3.83333 1.55281 3 2.03394 3 2.80374V13.196C3 13.9658 3.83333 14.447 4.5 14.0621L9 11.464V9H13.2678L13.5 8.86592Z" fill="#253627"/>
<path d="M14.1208 9C14.7291 8.32292 14.6056 7.19506 13.75 6.70111L4.75 1.50496C3.75 0.927608 2.5 1.64929 2.5 2.80399V13.1963C2.5 14.351 3.75 15.0727 4.75 14.4953L9 12.0416V10.8869L4.25 13.6293C3.91667 13.8218 3.5 13.5812 3.5 13.1963L3.5 2.80399C3.5 2.4191 3.91667 2.17853 4.25 2.37098L13.25 7.56714C13.5833 7.75959 13.5833 8.24071 13.25 8.43316L12.2682 9H14.1208Z" fill="#57965C"/>
<path d="M10 10H11.4594L13 12.5L14.5 10H16V16H15V11.3752L13.4093 13.9965H12.691L11 11.3752V16H10V10Z" fill="#CED0D6"/>
</svg>
